<svg id="svg" version="1.1" xmlns="http://www.w3.org/2000/svg" xmlns:xlink="http://www.w3.org/1999/xlink" width="400" height="400" viewBox="0, 0, 400,400"><g id="svgg"><path id="path0" d="M200.000 72.800 C 200.000 104.040,199.932 129.600,199.850 129.600 C 199.767 129.600,198.000 127.935,195.922 125.900 C 192.454 122.503,187.160 118.284,184.490 116.790 C 183.891 116.454,182.574 115.689,181.565 115.090 C 180.556 114.490,179.573 114.000,179.382 114.000 C 179.191 114.000,180.889 115.132,183.156 116.516 C 188.375 119.703,192.468 122.924,196.543 127.050 L 199.752 130.300 203.549 126.502 C 207.346 122.705,213.011 118.186,216.400 116.251 C 220.210 114.075,227.283 110.800,228.172 110.800 C 228.491 110.800,228.851 110.641,228.971 110.446 C 229.092 110.251,229.687 109.996,230.295 109.879 C 230.903 109.762,232.120 109.459,233.000 109.207 C 246.164 105.434,262.676 106.233,274.700 111.226 C 275.195 111.432,276.005 111.761,276.500 111.958 C 285.969 115.726,295.380 122.856,303.064 132.085 C 309.522 139.843,314.920 152.272,316.770 163.646 C 317.317 167.015,317.331 180.649,316.789 183.123 C 316.562 184.155,316.195 185.900,315.972 187.000 C 312.867 202.323,303.395 217.359,291.082 226.516 C 288.419 228.496,288.339 228.607,288.559 229.981 C 288.684 230.761,289.015 232.840,289.293 234.600 C 289.930 238.633,289.933 255.096,289.297 259.200 C 288.529 264.156,287.878 267.223,286.794 271.000 C 286.541 271.880,286.238 273.097,286.121 273.705 C 286.004 274.313,285.749 274.908,285.554 275.029 C 285.359 275.149,285.200 275.599,285.200 276.029 C 285.200 276.459,285.040 277.123,284.844 277.505 C 284.648 277.887,283.822 279.820,283.008 281.800 C 280.611 287.629,273.498 300.013,271.635 301.600 C 271.506 301.710,270.683 302.700,269.808 303.800 C 267.279 306.976,260.867 313.457,257.806 315.931 C 256.263 317.178,254.910 318.305,254.800 318.435 C 254.145 319.209,244.422 325.342,241.400 326.887 C 229.267 333.090,217.841 336.156,205.000 336.656 L 199.800 336.858 199.906 360.437 L 200.013 384.016 207.806 383.982 C 212.349 383.962,215.600 383.792,215.600 383.574 C 215.600 383.368,216.691 383.200,218.024 383.200 C 219.649 383.200,220.360 383.058,220.182 382.770 C 220.036 382.534,220.319 382.579,220.810 382.870 C 221.517 383.289,221.742 383.295,221.886 382.900 C 221.997 382.591,222.828 382.400,224.057 382.400 C 225.543 382.400,225.971 382.273,225.747 381.900 C 225.543 381.560,225.663 381.576,226.123 381.949 C 226.564 382.307,226.800 382.342,226.800 382.049 C 226.800 381.802,226.935 381.621,227.100 381.647 C 228.352 381.845,230.805 381.532,230.600 381.200 C 230.451 380.958,230.996 380.800,231.976 380.800 C 232.910 380.800,233.600 380.609,233.600 380.351 C 233.600 380.041,233.785 380.056,234.200 380.400 C 234.615 380.744,234.800 380.759,234.800 380.449 C 234.800 380.202,235.430 380.000,236.200 380.000 C 236.970 380.000,237.600 379.820,237.600 379.600 C 237.600 379.380,238.410 379.200,239.400 379.200 C 240.390 379.200,241.200 379.020,241.200 378.800 C 241.200 378.580,241.704 378.400,242.320 378.400 C 242.936 378.400,243.619 378.221,243.838 378.002 C 244.056 377.784,244.722 377.564,245.318 377.515 C 245.913 377.466,246.400 377.285,246.400 377.113 C 246.400 376.941,246.760 376.800,247.200 376.800 C 247.640 376.800,248.000 376.609,248.000 376.376 C 248.000 376.143,248.148 376.044,248.329 376.156 C 248.509 376.268,249.160 376.098,249.774 375.780 C 250.389 375.461,251.501 375.200,252.246 375.200 C 253.011 375.200,253.600 374.997,253.600 374.733 C 253.600 374.477,253.713 374.380,253.851 374.517 C 253.989 374.655,254.664 374.533,255.351 374.246 C 256.806 373.638,256.919 373.599,257.991 373.318 C 258.436 373.202,258.800 372.948,258.800 372.753 C 258.800 372.559,259.340 372.400,260.000 372.400 C 260.660 372.400,261.200 372.220,261.200 372.000 C 261.200 371.780,261.470 371.600,261.800 371.600 C 262.130 371.600,262.400 371.420,262.400 371.200 C 262.400 370.980,262.850 370.800,263.400 370.800 C 263.950 370.800,264.400 370.620,264.400 370.400 C 264.400 370.180,264.625 369.994,264.900 369.986 C 265.175 369.979,266.120 369.625,267.000 369.200 C 267.880 368.775,268.759 368.421,268.953 368.414 C 269.147 368.406,269.642 368.012,270.053 367.539 C 270.464 367.065,270.800 366.892,270.800 367.154 C 270.800 367.420,271.187 367.270,271.675 366.816 C 272.157 366.367,272.888 366.000,273.299 366.000 C 273.711 366.000,273.936 365.820,273.800 365.600 C 273.664 365.380,273.908 365.200,274.343 365.200 C 274.778 365.200,275.193 365.034,275.267 364.830 C 275.340 364.627,275.666 364.402,275.990 364.330 C 276.315 364.259,276.825 363.973,277.123 363.696 C 277.421 363.419,277.797 363.275,277.959 363.375 C 278.122 363.475,278.507 363.207,278.815 362.779 C 279.124 362.350,279.697 362.000,280.088 362.000 C 280.480 362.000,280.800 361.820,280.800 361.600 C 280.800 361.380,281.036 361.200,281.325 361.200 C 281.613 361.200,282.236 360.840,282.708 360.400 C 283.180 359.960,283.804 359.600,284.095 359.600 C 284.386 359.600,284.876 359.250,285.185 358.821 C 285.493 358.393,285.893 358.134,286.073 358.245 C 286.253 358.356,286.400 358.246,286.400 358.000 C 286.400 357.754,286.560 357.651,286.755 357.772 C 286.950 357.893,287.332 357.723,287.604 357.396 C 287.876 357.068,288.357 356.800,288.673 356.800 C 288.989 356.800,289.160 356.658,289.052 356.485 C 288.945 356.312,289.430 355.919,290.129 355.612 C 290.828 355.305,291.877 354.547,292.460 353.927 C 293.044 353.307,293.854 352.797,294.260 352.794 C 294.884 352.789,294.906 352.727,294.400 352.400 C 293.904 352.080,293.941 352.011,294.612 352.006 C 295.058 352.003,295.683 351.640,296.000 351.200 C 296.317 350.760,296.807 350.400,297.088 350.400 C 297.370 350.400,297.600 350.220,297.600 350.000 C 297.600 349.780,297.870 349.600,298.200 349.600 C 298.530 349.600,298.800 349.324,298.800 348.987 C 298.800 348.651,299.115 348.259,299.500 348.117 C 299.885 347.975,300.290 347.754,300.400 347.627 C 300.510 347.500,301.250 346.911,302.044 346.320 C 302.839 345.728,304.223 344.559,305.120 343.722 C 306.018 342.885,307.393 341.662,308.176 341.004 C 308.959 340.346,309.603 339.536,309.606 339.204 C 309.612 338.668,309.656 338.668,310.000 339.200 C 310.314 339.685,310.389 339.628,310.394 338.900 C 310.398 338.269,310.639 338.000,311.200 338.000 C 311.754 338.000,312.010 337.723,312.032 337.100 C 312.049 336.605,312.150 336.413,312.256 336.673 C 312.462 337.179,315.994 333.701,315.998 332.988 C 315.999 332.762,316.388 332.312,316.862 331.988 C 317.337 331.665,318.012 331.061,318.362 330.647 C 318.713 330.233,319.550 329.329,320.222 328.638 C 320.894 327.947,321.564 327.071,321.710 326.691 C 321.856 326.311,322.296 325.997,322.687 325.994 C 323.294 325.989,323.311 325.930,322.800 325.600 C 322.279 325.263,322.286 325.211,322.854 325.206 C 323.214 325.203,323.786 324.775,324.126 324.256 C 324.467 323.737,324.995 323.062,325.301 322.756 C 325.887 322.170,325.996 321.913,326.006 321.100 C 326.010 320.767,326.142 320.800,326.400 321.200 C 326.773 321.777,327.032 320.990,326.837 319.870 C 326.806 319.689,326.965 319.655,327.190 319.794 C 327.416 319.933,327.600 319.756,327.600 319.400 C 327.600 319.044,327.780 318.864,328.000 319.000 C 328.220 319.136,328.400 318.967,328.400 318.624 C 328.400 318.281,328.582 318.000,328.805 318.000 C 329.028 318.000,329.604 317.190,330.085 316.200 C 330.566 315.210,331.199 314.400,331.492 314.400 C 331.785 314.400,332.145 314.085,332.292 313.700 C 332.439 313.315,332.884 312.651,333.280 312.225 C 333.676 311.798,334.000 311.215,334.000 310.928 C 334.000 310.641,334.360 310.182,334.800 309.907 C 335.240 309.632,335.600 309.080,335.600 308.680 C 335.600 308.280,335.764 308.054,335.965 308.179 C 336.166 308.303,336.570 307.864,336.863 307.202 C 337.156 306.541,337.526 306.000,337.685 306.000 C 337.844 306.000,337.868 305.723,337.738 305.384 C 337.590 304.997,337.700 304.811,338.033 304.884 C 338.546 304.996,338.636 304.799,338.756 303.300 C 338.804 302.699,338.867 302.685,339.200 303.200 C 339.495 303.657,339.589 303.671,339.594 303.262 C 339.597 302.966,339.972 302.201,340.427 301.562 C 340.882 300.923,341.130 300.400,340.978 300.400 C 340.826 300.400,340.949 300.095,341.251 299.723 C 341.682 299.192,341.686 299.115,341.270 299.365 C 340.832 299.629,340.831 299.539,341.267 298.842 C 341.556 298.379,341.929 298.000,342.096 298.000 C 342.263 298.000,342.400 297.629,342.400 297.176 C 342.400 296.723,342.580 296.464,342.800 296.600 C 343.020 296.736,343.200 296.567,343.200 296.224 C 343.200 295.881,343.380 295.600,343.600 295.600 C 343.820 295.600,344.000 295.049,344.000 294.376 C 344.000 293.663,344.167 293.256,344.400 293.400 C 344.620 293.536,344.800 293.401,344.800 293.099 C 344.800 292.798,345.160 292.164,345.600 291.692 C 346.040 291.220,346.400 290.455,346.400 289.993 C 346.400 289.531,346.580 289.264,346.800 289.400 C 347.024 289.538,347.200 289.229,347.200 288.699 C 347.200 288.178,347.560 287.364,348.000 286.892 C 348.440 286.420,348.800 285.655,348.800 285.193 C 348.800 284.731,348.950 284.445,349.133 284.558 C 349.316 284.671,349.706 283.880,350.000 282.800 C 350.294 281.720,350.684 280.929,350.867 281.042 C 351.050 281.155,351.200 280.787,351.200 280.224 C 351.200 279.661,351.380 279.200,351.600 279.200 C 351.820 279.200,352.000 278.840,352.000 278.400 C 352.000 277.960,352.180 277.600,352.400 277.600 C 352.620 277.600,352.779 277.465,352.753 277.300 C 352.620 276.462,352.833 275.100,353.061 275.327 C 353.397 275.664,354.400 273.737,354.400 272.754 C 354.400 272.339,354.580 272.000,354.800 272.000 C 355.020 272.000,355.200 271.651,355.200 271.224 C 355.200 270.797,355.380 270.336,355.600 270.200 C 355.820 270.064,356.000 269.601,356.000 269.171 C 356.000 268.741,356.167 268.077,356.371 267.695 C 356.898 266.706,357.298 265.519,357.391 264.663 C 357.436 264.258,357.659 263.808,357.888 263.663 C 358.117 263.518,358.433 262.275,358.591 260.900 C 358.749 259.525,359.041 258.400,359.239 258.400 C 359.438 258.400,359.602 258.085,359.605 257.700 C 359.607 257.274,360.266 256.686,361.284 256.200 C 362.205 255.760,363.365 254.995,363.861 254.500 C 364.358 254.005,364.962 253.600,365.205 253.600 C 365.448 253.600,365.536 253.420,365.400 253.200 C 365.264 252.980,365.445 252.800,365.802 252.800 C 366.160 252.800,367.329 251.900,368.400 250.800 C 369.471 249.700,370.550 248.800,370.798 248.800 C 371.045 248.800,371.136 248.620,371.000 248.400 C 370.864 248.180,371.046 248.000,371.405 248.000 C 372.288 248.000,373.372 246.924,372.711 246.704 C 372.446 246.615,372.807 246.287,373.514 245.974 C 374.221 245.661,374.822 245.269,374.850 245.102 C 374.878 244.936,374.945 244.620,375.000 244.400 C 375.055 244.180,375.123 243.809,375.150 243.576 C 375.178 243.343,375.380 243.264,375.600 243.400 C 375.820 243.536,376.000 243.367,376.000 243.024 C 376.000 242.667,376.342 242.400,376.800 242.400 C 377.240 242.400,377.600 242.207,377.600 241.971 C 377.600 241.734,378.500 240.651,379.600 239.562 C 380.700 238.474,381.600 237.407,381.600 237.192 C 381.600 236.976,381.780 236.800,382.000 236.800 C 382.220 236.800,382.400 236.596,382.400 236.347 C 382.400 236.098,382.715 235.603,383.100 235.247 C 384.117 234.307,385.227 232.165,384.889 231.792 C 384.730 231.616,384.799 231.585,385.042 231.723 C 385.284 231.862,385.685 231.531,385.933 230.987 C 386.180 230.444,386.567 230.000,386.791 230.000 C 387.016 230.000,387.200 229.638,387.200 229.196 C 387.200 228.754,387.560 228.084,388.000 227.707 C 388.440 227.330,388.800 226.792,388.800 226.511 C 388.800 226.230,388.935 225.999,389.100 225.997 C 389.459 225.993,390.400 224.056,390.400 223.320 C 390.400 223.034,390.560 222.800,390.755 222.800 C 390.951 222.800,391.229 222.170,391.374 221.400 C 391.518 220.630,391.819 220.000,392.042 220.000 C 392.265 220.000,392.345 219.835,392.220 219.632 C 392.095 219.430,392.271 218.986,392.611 218.647 C 392.950 218.307,393.222 217.932,393.214 217.814 C 393.144 216.760,393.261 216.391,393.600 216.600 C 393.833 216.744,394.000 216.337,394.000 215.624 C 394.000 214.951,394.180 214.400,394.400 214.400 C 394.620 214.400,394.800 214.076,394.800 213.680 C 394.800 213.284,394.984 212.776,395.210 212.550 C 395.435 212.325,395.644 211.479,395.674 210.670 C 395.705 209.862,395.880 209.200,396.065 209.200 C 396.249 209.200,396.400 208.840,396.400 208.400 C 396.400 207.960,396.580 207.600,396.800 207.600 C 397.020 207.600,397.200 207.060,397.200 206.400 C 397.200 205.740,397.380 205.200,397.600 205.200 C 397.820 205.200,398.000 204.379,398.000 203.376 C 398.000 202.263,398.156 201.649,398.400 201.800 C 398.643 201.950,398.800 201.364,398.800 200.304 C 398.800 199.345,398.996 198.364,399.236 198.124 C 399.511 197.849,399.755 194.436,399.894 188.944 C 400.122 179.924,399.819 174.209,399.168 175.239 C 398.887 175.682,398.811 175.641,398.806 175.047 C 398.803 174.633,398.412 173.958,397.939 173.547 C 397.465 173.136,397.298 172.800,397.567 172.800 C 397.905 172.800,397.870 172.613,397.457 172.200 C 397.127 171.870,396.574 171.600,396.229 171.600 C 395.883 171.600,395.600 171.409,395.600 171.176 C 395.600 170.943,395.420 170.864,395.200 171.000 C 394.980 171.136,394.800 170.967,394.800 170.624 C 394.800 170.267,394.458 170.000,394.000 170.000 C 393.560 170.000,393.197 169.775,393.194 169.500 C 393.190 169.167,393.058 169.200,392.800 169.600 C 392.542 170.000,392.410 170.033,392.406 169.700 C 392.402 169.332,391.290 169.200,388.200 169.200 C 383.656 169.200,383.612 169.183,384.800 167.908 C 385.240 167.436,385.600 166.813,385.600 166.525 C 385.600 166.236,385.780 166.000,386.000 166.000 C 386.220 166.000,386.400 165.561,386.400 165.024 C 386.400 164.487,386.580 163.936,386.800 163.800 C 387.020 163.664,387.200 163.270,387.200 162.923 C 387.200 162.577,387.515 162.003,387.900 161.647 C 388.285 161.291,388.649 160.762,388.710 160.471 C 388.770 160.181,389.123 159.479,389.495 158.911 C 389.867 158.344,390.210 157.610,390.259 157.280 C 390.307 156.950,390.522 156.572,390.737 156.439 C 390.951 156.307,391.253 155.524,391.408 154.699 C 391.562 153.875,391.894 153.197,392.145 153.194 C 392.395 153.191,392.330 153.013,392.000 152.800 C 391.600 152.542,391.567 152.410,391.900 152.406 C 392.175 152.403,392.400 152.029,392.400 151.576 C 392.400 151.123,392.580 150.864,392.800 151.000 C 393.033 151.144,393.200 150.737,393.200 150.024 C 393.200 149.351,393.380 148.800,393.600 148.800 C 393.820 148.800,394.000 148.361,394.000 147.824 C 394.000 147.287,394.180 146.736,394.400 146.600 C 394.620 146.464,394.800 145.903,394.800 145.353 C 394.800 144.727,394.965 144.455,395.240 144.625 C 395.531 144.805,395.518 144.593,395.200 144.000 C 394.936 143.507,394.898 143.213,395.115 143.347 C 395.332 143.481,395.640 143.188,395.801 142.696 C 395.961 142.203,396.139 141.665,396.196 141.500 C 396.253 141.335,396.322 140.739,396.350 140.176 C 396.378 139.605,396.577 139.262,396.800 139.400 C 397.132 139.605,397.445 137.152,397.247 135.900 C 397.221 135.735,397.380 135.600,397.600 135.600 C 397.820 135.600,398.000 134.981,398.000 134.224 C 398.000 133.467,398.154 132.752,398.343 132.635 C 398.531 132.519,398.819 131.383,398.981 130.112 C 399.143 128.840,399.417 126.720,399.588 125.400 C 400.256 120.251,400.085 90.543,399.383 89.840 C 399.031 89.488,398.943 89.200,399.187 89.200 C 399.479 89.200,399.454 89.008,399.116 88.642 C 398.832 88.335,398.465 88.166,398.300 88.266 C 398.135 88.365,398.000 87.987,398.000 87.424 C 398.000 86.752,397.780 86.400,397.360 86.400 C 397.009 86.400,396.199 85.841,395.560 85.158 C 394.920 84.472,394.397 84.158,394.394 84.458 C 394.390 84.817,394.288 84.853,394.094 84.566 C 393.335 83.443,383.200 82.454,383.200 83.502 C 383.200 83.669,382.659 84.044,381.998 84.337 C 381.336 84.630,380.897 85.034,381.021 85.235 C 381.146 85.436,381.006 85.600,380.712 85.600 C 380.417 85.600,379.917 85.960,379.600 86.400 C 379.283 86.840,378.693 87.200,378.288 87.200 C 377.884 87.200,377.664 87.380,377.800 87.600 C 377.936 87.820,377.767 88.000,377.424 88.000 C 377.081 88.000,376.800 88.175,376.800 88.389 C 376.800 89.065,373.385 92.226,372.065 92.773 C 371.369 93.061,370.800 93.450,370.800 93.638 C 370.800 93.825,369.886 94.594,368.770 95.346 C 367.506 96.197,366.940 96.793,367.270 96.925 C 367.824 97.146,366.667 97.359,365.660 97.221 C 365.363 97.180,365.238 97.339,365.383 97.573 C 365.529 97.808,365.394 98.000,365.085 98.000 C 364.775 98.000,364.327 98.405,364.088 98.900 C 363.829 99.438,363.643 99.563,363.627 99.211 C 363.609 98.807,363.404 98.902,362.977 99.511 C 362.635 100.000,362.050 100.406,361.677 100.413 C 360.829 100.429,359.523 101.389,359.873 101.740 C 360.016 101.883,359.698 102.000,359.167 102.000 C 358.635 102.001,357.682 102.447,357.048 102.992 C 356.414 103.537,355.739 103.886,355.548 103.768 C 355.357 103.650,355.200 103.743,355.200 103.976 C 355.200 104.209,354.930 104.400,354.600 104.400 C 354.270 104.400,354.000 104.580,354.000 104.800 C 354.000 105.020,353.670 105.200,353.267 105.200 C 352.863 105.200,352.409 105.325,352.256 105.477 C 352.104 105.629,351.583 105.814,351.098 105.888 C 350.614 105.962,350.042 106.198,349.829 106.411 C 349.615 106.625,349.116 106.800,348.720 106.800 C 348.324 106.800,348.000 106.980,348.000 107.200 C 348.000 107.420,347.449 107.600,346.776 107.600 C 346.103 107.600,345.652 107.761,345.774 107.958 C 345.896 108.155,345.726 108.419,345.398 108.546 C 345.035 108.685,344.800 108.544,344.800 108.187 C 344.800 107.864,344.620 107.600,344.400 107.600 C 344.180 107.600,344.000 107.357,344.000 107.059 C 344.000 106.762,343.505 105.992,342.900 105.349 C 342.295 104.706,341.739 103.824,341.663 103.390 C 341.588 102.955,341.362 102.540,341.161 102.466 C 340.960 102.392,340.885 102.186,340.995 102.007 C 341.266 101.569,340.190 99.544,339.861 99.873 C 339.717 100.016,339.600 99.833,339.600 99.467 C 339.600 99.100,339.420 98.800,339.200 98.800 C 338.980 98.800,338.800 98.434,338.800 97.987 C 338.800 97.541,338.531 97.072,338.202 96.946 C 337.874 96.819,337.713 96.541,337.846 96.326 C 337.978 96.112,337.707 95.670,337.243 95.345 C 336.780 95.020,336.400 94.501,336.400 94.191 C 336.400 93.881,335.860 93.013,335.200 92.261 C 334.540 91.509,333.997 90.558,333.994 90.147 C 333.989 89.518,333.926 89.495,333.600 90.000 C 333.286 90.485,333.211 90.428,333.206 89.700 C 333.203 89.205,333.020 88.800,332.800 88.800 C 332.580 88.800,332.400 88.461,332.400 88.047 C 332.400 87.630,332.043 87.200,331.600 87.084 C 331.072 86.946,330.800 86.538,330.800 85.884 C 330.800 85.230,330.528 84.822,330.000 84.684 C 329.560 84.569,329.200 84.188,329.200 83.837 C 329.200 83.487,329.020 83.200,328.800 83.200 C 328.580 83.200,328.400 82.912,328.400 82.560 C 328.400 82.209,327.860 81.417,327.200 80.800 C 326.540 80.183,326.000 79.494,326.000 79.269 C 326.000 79.043,325.556 78.509,325.014 78.082 C 324.471 77.655,324.129 77.205,324.253 77.081 C 324.376 76.957,324.100 76.620,323.639 76.331 C 323.178 76.043,322.800 75.658,322.800 75.475 C 322.800 75.292,322.575 74.908,322.300 74.620 C 322.025 74.333,321.538 73.720,321.218 73.258 C 320.794 72.646,320.551 72.551,320.324 72.909 C 320.121 73.228,320.010 73.085,320.006 72.500 C 320.002 71.929,319.756 71.600,319.333 71.600 C 318.967 71.600,318.772 71.494,318.902 71.365 C 319.031 71.236,318.352 70.300,317.394 69.285 C 316.436 68.271,315.740 67.296,315.849 67.120 C 315.958 66.944,315.632 66.786,315.124 66.768 C 314.616 66.751,314.408 66.652,314.662 66.548 C 314.924 66.440,314.188 65.415,312.962 64.179 C 310.829 62.030,310.116 61.522,310.601 62.500 C 310.737 62.775,310.523 62.581,310.124 62.070 C 309.049 60.689,306.800 58.300,306.800 58.539 C 306.800 58.653,306.145 58.128,305.344 57.373 C 304.543 56.618,303.723 56.000,303.520 56.000 C 303.318 56.000,303.264 55.820,303.400 55.600 C 303.536 55.380,303.356 55.200,303.000 55.200 C 302.644 55.200,302.454 55.036,302.579 54.835 C 302.703 54.634,302.273 54.234,301.622 53.946 C 300.835 53.597,300.600 53.321,300.920 53.117 C 301.241 52.913,301.158 52.810,300.669 52.806 C 300.266 52.803,299.246 52.080,298.400 51.200 C 297.554 50.320,296.568 49.600,296.208 49.600 C 295.848 49.600,295.664 49.420,295.800 49.200 C 295.936 48.980,295.806 48.800,295.512 48.800 C 295.217 48.800,294.717 48.440,294.400 48.000 C 294.083 47.560,293.458 47.197,293.012 47.194 C 292.341 47.189,292.304 47.120,292.800 46.800 C 293.297 46.479,293.262 46.411,292.596 46.406 C 292.154 46.403,291.568 46.040,291.293 45.600 C 291.018 45.160,290.525 44.800,290.197 44.800 C 289.868 44.800,289.600 44.590,289.600 44.333 C 289.600 44.077,289.491 43.976,289.357 44.110 C 289.223 44.243,288.640 43.913,288.061 43.376 C 287.059 42.447,286.687 42.274,286.172 42.500 C 286.046 42.555,285.767 42.285,285.552 41.900 C 285.337 41.515,284.796 41.200,284.352 41.200 C 283.467 41.200,282.289 40.244,282.686 39.848 C 282.822 39.711,282.633 39.600,282.267 39.600 C 281.900 39.600,281.600 39.420,281.600 39.200 C 281.600 38.980,281.120 38.800,280.533 38.800 C 279.947 38.800,279.584 38.683,279.727 38.540 C 280.093 38.174,278.753 37.228,277.847 37.213 C 277.433 37.206,276.803 36.884,276.447 36.497 C 276.091 36.111,275.260 35.526,274.600 35.197 C 273.940 34.869,273.051 34.285,272.625 33.900 C 272.198 33.515,271.613 33.200,271.325 33.200 C 271.036 33.200,270.800 33.020,270.800 32.800 C 270.800 32.580,270.249 32.400,269.576 32.400 C 268.863 32.400,268.456 32.233,268.600 32.000 C 268.736 31.780,268.567 31.600,268.224 31.600 C 267.881 31.600,267.600 31.409,267.600 31.176 C 267.600 30.943,267.435 30.855,267.232 30.980 C 267.030 31.105,266.548 30.891,266.161 30.504 C 265.774 30.117,265.399 29.845,265.329 29.900 C 264.904 30.231,263.996 29.930,264.238 29.538 C 264.395 29.284,264.354 29.182,264.146 29.310 C 263.938 29.438,263.145 29.267,262.384 28.928 C 261.623 28.590,260.595 28.153,260.100 27.957 C 259.605 27.761,258.795 27.431,258.300 27.225 C 257.805 27.019,256.950 26.725,256.400 26.571 C 255.850 26.418,255.300 26.137,255.178 25.948 C 255.055 25.759,254.470 25.564,253.878 25.515 C 253.285 25.466,252.800 25.285,252.800 25.113 C 252.800 24.941,252.260 24.800,251.600 24.800 C 250.940 24.800,250.400 24.590,250.400 24.333 C 250.400 24.077,250.286 23.980,250.147 24.119 C 250.008 24.258,249.513 24.165,249.047 23.913 C 248.581 23.660,247.570 23.388,246.800 23.307 C 246.030 23.227,245.340 22.990,245.267 22.781 C 245.193 22.571,244.698 22.400,244.167 22.400 C 243.635 22.400,243.200 22.220,243.200 22.000 C 243.200 21.780,242.660 21.600,242.000 21.600 C 241.340 21.600,240.800 21.420,240.800 21.200 C 240.800 20.980,240.181 20.800,239.424 20.800 C 238.667 20.800,237.936 20.620,237.800 20.400 C 237.664 20.180,236.854 20.000,236.000 20.000 C 235.146 20.000,234.336 19.820,234.200 19.600 C 234.064 19.380,233.243 19.200,232.376 19.200 C 231.509 19.200,230.800 19.020,230.800 18.800 C 230.800 18.580,229.900 18.400,228.800 18.400 C 227.470 18.400,226.798 18.233,226.794 17.900 C 226.790 17.567,226.658 17.600,226.400 18.000 C 226.055 18.533,226.011 18.533,226.000 18.000 C 225.989 17.467,225.945 17.467,225.600 18.000 C 225.342 18.400,225.210 18.433,225.206 18.100 C 225.202 17.789,224.626 17.600,223.680 17.600 C 222.844 17.600,221.944 17.384,221.680 17.120 C 221.307 16.747,221.199 16.769,221.194 17.220 C 221.189 17.636,221.102 17.665,220.885 17.324 C 220.705 17.041,219.400 16.813,217.677 16.763 C 216.079 16.716,214.677 16.525,214.562 16.339 C 214.219 15.783,213.119 15.940,213.435 16.500 C 213.661 16.900,213.610 16.900,213.179 16.500 C 212.795 16.144,210.822 16.000,206.320 16.000 L 200.000 16.000 200.000 72.800 M140.800 107.276 C 139.590 107.480,137.997 107.738,137.259 107.850 C 136.522 107.961,136.000 108.133,136.100 108.233 C 136.200 108.333,138.230 108.142,140.611 107.808 C 146.007 107.050,152.583 107.049,157.800 107.805 C 162.310 108.458,162.618 108.484,162.322 108.189 C 161.222 107.088,145.791 106.434,140.800 107.276 M132.600 108.778 C 132.160 108.956,130.540 109.493,129.000 109.971 C 127.460 110.450,125.840 110.996,125.400 111.184 C 124.960 111.373,124.259 111.638,123.843 111.773 C 123.426 111.908,123.178 112.111,123.291 112.224 C 123.404 112.337,124.464 112.043,125.648 111.571 C 127.539 110.817,132.713 109.218,135.000 108.681 C 135.529 108.556,135.393 108.486,134.600 108.473 C 133.940 108.463,133.040 108.600,132.600 108.778 M165.400 109.200 C 166.940 109.606,168.818 110.128,169.574 110.362 C 170.329 110.595,171.030 110.704,171.131 110.603 C 171.325 110.408,171.234 110.375,168.400 109.606 C 167.410 109.337,166.187 108.955,165.681 108.758 C 165.176 108.561,164.276 108.414,163.681 108.432 C 163.049 108.451,163.763 108.770,165.400 109.200 M171.633 110.935 C 172.019 111.247,175.200 112.377,175.200 112.202 C 175.200 111.963,172.451 110.800,171.884 110.800 C 171.655 110.800,171.542 110.861,171.633 110.935 M120.315 113.389 C 115.587 115.818,111.453 118.386,111.766 118.699 C 111.866 118.799,112.544 118.429,113.274 117.877 C 114.003 117.325,116.490 115.870,118.800 114.643 C 121.110 113.416,122.820 112.414,122.600 112.416 C 122.380 112.419,121.352 112.856,120.315 113.389 M108.380 120.847 C 102.689 125.364,97.118 131.435,93.308 137.273 C 90.921 140.930,87.387 147.920,87.744 148.277 C 87.883 148.416,88.189 147.978,88.424 147.304 C 90.963 140.018,99.090 129.080,106.515 122.952 C 110.581 119.596,111.473 118.800,111.166 118.800 C 111.053 118.800,109.799 119.721,108.380 120.847 M86.411 151.062 C 85.934 152.337,85.464 153.924,85.365 154.590 C 85.267 155.255,85.556 154.720,86.008 153.400 C 86.460 152.080,87.033 150.595,87.282 150.101 C 87.531 149.606,87.632 149.099,87.506 148.973 C 87.381 148.847,86.888 149.788,86.411 151.062 M84.688 156.533 C 84.210 157.749,84.324 158.773,84.839 157.887 C 85.067 157.496,85.191 156.866,85.115 156.487 C 84.988 155.860,84.951 155.864,84.688 156.533 M83.778 160.578 C 83.627 161.381,83.604 162.137,83.726 162.260 C 83.848 162.382,84.072 161.825,84.222 161.022 C 84.373 160.219,84.396 159.463,84.274 159.340 C 84.152 159.218,83.928 159.775,83.778 160.578 M83.089 164.956 C 82.930 166.032,82.823 167.742,82.852 168.756 C 82.894 170.266,82.968 170.057,83.259 167.600 C 83.665 164.169,83.526 162.001,83.089 164.956 M82.823 178.233 C 82.836 179.535,83.004 181.320,83.196 182.200 C 83.439 183.312,83.478 182.641,83.322 180.000 C 83.068 175.684,82.789 174.694,82.823 178.233 M83.656 185.200 C 83.656 185.750,83.811 186.560,84.000 187.000 C 84.313 187.729,84.344 187.712,84.344 186.800 C 84.344 186.250,84.189 185.440,84.000 185.000 C 83.687 184.271,83.656 184.288,83.656 185.200 M84.456 188.600 C 84.456 189.040,84.611 189.760,84.800 190.200 L 85.144 191.000 85.144 190.200 C 85.144 189.760,84.989 189.040,84.800 188.600 L 84.456 187.800 84.456 188.600 M85.223 191.508 C 85.194 192.136,87.099 197.642,87.457 197.965 C 87.788 198.263,87.512 197.307,86.252 193.800 C 85.699 192.260,85.236 191.228,85.223 191.508 M87.600 198.694 C 87.600 199.429,92.069 207.740,94.049 210.687 C 98.162 216.808,104.903 223.808,110.275 227.535 C 111.159 228.148,111.600 228.816,111.711 229.710 L 111.872 231.000 111.927 229.600 C 111.978 228.327,111.776 228.055,109.694 226.600 C 104.520 222.982,95.672 213.178,92.368 207.400 C 90.756 204.582,88.421 199.816,88.410 199.324 C 88.399 198.785,87.600 198.165,87.600 198.694 M111.056 232.084 C 110.921 232.588,110.830 233.720,110.854 234.600 C 110.892 235.978,110.946 235.871,111.243 233.828 C 111.598 231.399,111.495 230.446,111.056 232.084 M110.254 238.256 C 109.919 240.706,109.970 253.771,110.323 255.758 C 110.475 256.615,110.600 252.610,110.600 246.858 C 110.600 241.106,110.579 236.400,110.554 236.400 C 110.529 236.400,110.394 237.235,110.254 238.256 M110.806 259.633 C 110.809 260.605,110.994 261.670,111.216 262.000 C 111.497 262.418,111.539 261.933,111.355 260.400 C 111.025 257.647,110.798 257.329,110.806 259.633 M111.606 264.033 C 111.609 264.785,111.792 265.670,112.012 266.000 C 112.291 266.419,112.333 266.058,112.150 264.800 C 111.825 262.559,111.598 262.240,111.606 264.033 M112.446 268.000 C 112.427 268.550,112.587 269.270,112.800 269.600 C 113.294 270.364,113.294 269.542,112.800 268.000 L 112.480 267.000 112.446 268.000 M113.234 271.000 C 113.222 271.440,113.387 272.070,113.600 272.400 C 114.114 273.195,114.114 272.196,113.600 271.000 L 113.256 270.200 113.234 271.000 M114.812 276.000 C 114.812 276.330,114.987 276.870,115.200 277.200 C 115.545 277.733,115.588 277.733,115.588 277.200 C 115.588 276.870,115.413 276.330,115.200 276.000 C 114.855 275.467,114.812 275.467,114.812 276.000 M116.418 280.252 C 116.394 280.856,118.438 285.296,118.645 285.088 C 118.734 284.999,118.274 283.772,117.622 282.363 C 116.970 280.953,116.428 280.003,116.418 280.252 M118.800 285.845 C 118.800 286.140,120.990 290.182,122.758 293.151 C 131.105 307.165,143.876 319.171,158.477 326.732 C 165.168 330.197,178.295 335.038,179.023 334.310 C 179.127 334.207,177.994 333.809,176.506 333.427 C 171.503 332.141,164.328 329.324,158.800 326.476 C 142.641 318.148,128.555 304.059,120.336 288.000 C 119.202 285.783,118.800 285.220,118.800 285.845 M180.200 334.800 C 180.640 334.989,181.450 335.138,182.000 335.132 L 183.000 335.120 182.000 334.800 C 181.450 334.624,180.640 334.474,180.200 334.468 L 179.400 334.456 180.200 334.800 M184.200 335.600 C 184.860 335.768,185.940 335.905,186.600 335.905 L 187.800 335.905 186.600 335.600 C 185.940 335.432,184.860 335.295,184.200 335.295 L 183.000 335.295 184.200 335.600 M189.800 336.384 C 190.987 336.702,197.088 336.937,196.767 336.653 C 196.675 336.571,194.800 336.406,192.600 336.284 C 190.301 336.157,189.110 336.200,189.800 336.384 " stroke="none" fill="#e4bb64" fill-rule="evenodd"></path><path id="path1" d="M144.600 154.969 C 138.605 157.734,137.600 160.389,137.600 173.454 L 137.600 183.686 138.809 186.220 C 142.893 194.776,154.637 195.143,159.503 186.866 L 160.600 185.000 160.725 174.403 C 160.865 162.539,160.727 161.577,158.451 158.560 C 155.308 154.396,149.248 152.824,144.600 154.969 M246.164 154.972 C 243.552 156.160,241.350 158.375,240.129 161.042 C 238.784 163.982,238.829 183.442,240.188 186.200 C 244.432 194.812,256.879 195.020,261.204 186.551 C 262.656 183.707,262.965 164.584,261.609 161.422 C 258.914 155.133,252.082 152.280,246.164 154.972 M176.570 216.423 C 170.135 218.898,167.131 225.777,169.815 231.889 C 170.670 233.835,172.204 235.576,179.515 242.903 L 188.200 251.606 188.400 266.503 C 188.600 281.366,188.602 281.404,189.587 283.332 C 193.474 290.942,204.213 292.102,209.237 285.455 C 211.538 282.410,211.600 281.910,211.600 266.350 L 211.600 252.193 220.019 243.796 C 228.430 235.407,229.765 233.832,230.694 231.200 C 231.266 229.579,231.365 224.714,230.847 223.695 C 230.652 223.313,230.268 222.517,229.993 221.926 C 227.759 217.130,220.983 214.317,216.000 216.118 C 213.384 217.063,212.603 217.691,206.294 223.925 L 199.987 230.155 193.694 223.929 C 190.205 220.478,186.776 217.438,186.000 217.108 C 185.230 216.780,184.097 216.307,183.481 216.056 C 181.825 215.381,178.870 215.538,176.570 216.423 " stroke="none" fill="#05347b" fill-rule="evenodd"></path><path id="path2" d="M185.000 16.400 C 184.560 16.589,182.895 16.756,181.300 16.772 C 179.652 16.788,178.400 16.973,178.400 17.200 C 178.400 17.422,177.341 17.600,176.024 17.600 C 174.717 17.600,173.536 17.780,173.400 18.000 C 173.264 18.220,172.364 18.400,171.400 18.400 C 170.436 18.400,169.536 18.580,169.400 18.800 C 169.264 19.020,168.454 19.200,167.600 19.200 C 166.746 19.200,165.936 19.380,165.800 19.600 C 165.664 19.820,164.854 20.000,164.000 20.000 C 163.146 20.000,162.336 20.180,162.200 20.400 C 162.064 20.620,161.524 20.800,161.000 20.800 C 160.476 20.800,159.936 20.980,159.800 21.200 C 159.664 21.420,159.034 21.600,158.400 21.600 C 157.766 21.600,157.136 21.780,157.000 22.000 C 156.864 22.220,156.223 22.400,155.576 22.400 C 154.929 22.400,154.400 22.580,154.400 22.800 C 154.400 23.020,153.860 23.200,153.200 23.200 C 152.540 23.200,152.000 23.380,152.000 23.600 C 152.000 23.820,151.460 24.000,150.800 24.000 C 150.140 24.000,149.600 24.180,149.600 24.400 C 149.600 24.620,149.195 24.800,148.700 24.800 C 147.260 24.801,141.870 26.964,134.844 30.363 C 133.438 31.044,132.043 31.600,131.744 31.600 C 131.445 31.600,131.200 31.780,131.200 32.000 C 131.200 32.220,130.922 32.400,130.583 32.400 C 130.244 32.400,129.580 32.760,129.108 33.200 C 128.636 33.640,127.923 34.000,127.525 34.000 C 127.126 34.000,126.800 34.180,126.800 34.400 C 126.800 34.620,126.530 34.800,126.200 34.800 C 125.870 34.800,125.600 34.980,125.600 35.200 C 125.600 35.420,125.240 35.600,124.800 35.600 C 124.360 35.600,124.000 35.759,124.000 35.953 C 124.000 36.148,123.685 36.407,123.300 36.529 C 122.364 36.825,120.234 38.124,120.067 38.500 C 119.993 38.665,119.758 38.800,119.545 38.800 C 119.331 38.800,118.131 39.489,116.878 40.331 C 115.625 41.173,114.330 41.982,114.000 42.129 C 112.876 42.627,111.813 43.399,111.283 44.100 C 110.993 44.485,110.540 44.804,110.277 44.809 C 110.015 44.814,109.105 45.444,108.256 46.209 C 107.407 46.974,106.576 47.600,106.410 47.600 C 106.244 47.600,105.505 48.127,104.768 48.770 C 104.031 49.414,103.259 49.836,103.052 49.709 C 102.845 49.581,102.805 49.684,102.962 49.938 C 103.119 50.192,103.083 50.400,102.883 50.400 C 102.683 50.400,101.997 50.898,101.359 51.508 C 100.722 52.117,99.750 52.928,99.200 53.310 C 98.280 53.950,93.760 58.025,90.593 61.070 C 89.867 61.768,89.166 62.233,89.036 62.103 C 88.906 61.973,88.800 62.177,88.800 62.557 C 88.800 62.937,88.620 63.136,88.400 63.000 C 88.180 62.864,88.000 63.008,88.000 63.320 C 88.000 63.632,87.281 64.498,86.402 65.244 C 85.523 65.990,84.803 66.714,84.802 66.854 C 84.801 66.994,83.359 68.569,81.597 70.354 C 79.836 72.139,78.493 73.600,78.613 73.600 C 78.857 73.600,78.335 74.264,76.700 76.036 C 76.095 76.691,75.600 77.309,75.600 77.409 C 75.600 77.580,74.707 78.731,73.787 79.745 C 73.560 79.995,72.934 80.830,72.398 81.600 C 71.861 82.370,71.102 83.349,70.711 83.775 C 70.320 84.202,70.000 84.699,70.000 84.879 C 70.000 85.060,69.460 85.772,68.800 86.463 C 68.140 87.154,67.600 87.962,67.600 88.259 C 67.600 88.557,67.465 88.801,67.300 88.802 C 67.135 88.803,66.370 89.792,65.600 91.000 C 64.830 92.208,64.065 93.197,63.900 93.198 C 63.735 93.199,63.600 93.436,63.600 93.725 C 63.600 94.013,63.240 94.636,62.800 95.108 C 62.360 95.580,62.000 96.156,62.000 96.387 C 62.000 96.619,61.415 97.669,60.700 98.722 C 58.886 101.392,58.400 102.296,58.400 102.995 C 58.400 103.328,58.220 103.600,58.000 103.600 C 57.780 103.600,57.600 103.960,57.600 104.400 C 57.600 104.840,57.465 105.202,57.300 105.205 C 57.135 105.207,56.656 105.927,56.236 106.805 C 55.456 108.433,54.925 108.688,53.695 108.026 C 53.313 107.821,52.415 107.417,51.700 107.129 C 50.985 106.840,50.400 106.469,50.400 106.302 C 50.400 106.136,49.950 106.000,49.400 106.000 C 48.850 106.000,48.400 105.820,48.400 105.600 C 48.400 105.380,47.950 105.200,47.400 105.200 C 46.850 105.200,46.400 105.020,46.400 104.800 C 46.400 104.580,46.040 104.400,45.600 104.400 C 45.160 104.400,44.800 104.220,44.800 104.000 C 44.800 103.780,44.440 103.600,44.000 103.600 C 43.560 103.600,43.200 103.441,43.200 103.247 C 43.200 103.052,42.885 102.793,42.500 102.671 C 41.813 102.454,39.594 101.195,39.200 100.799 C 39.090 100.689,38.508 100.345,37.907 100.035 C 37.305 99.726,36.458 99.141,36.023 98.736 C 35.589 98.331,35.080 98.000,34.892 98.000 C 34.704 98.000,34.185 97.659,33.738 97.243 C 33.291 96.826,32.402 96.213,31.762 95.881 C 31.123 95.548,30.164 94.809,29.630 94.238 C 29.097 93.667,28.504 93.200,28.313 93.200 C 27.873 93.200,27.382 92.788,24.022 89.600 C 19.678 85.477,17.859 84.000,17.128 84.000 C 16.753 84.000,16.336 83.820,16.200 83.600 C 16.061 83.375,14.129 83.200,11.776 83.200 C 9.259 83.200,7.600 83.359,7.600 83.600 C 7.600 83.820,7.195 84.000,6.700 84.000 C 6.205 84.001,5.277 84.451,4.638 85.000 C 3.999 85.550,3.324 86.000,3.138 86.000 C 2.952 86.000,2.800 86.230,2.800 86.512 C 2.800 86.793,2.440 87.283,2.000 87.600 C 1.560 87.917,1.200 88.392,1.200 88.655 C 1.200 88.918,0.975 89.209,0.700 89.300 C -0.031 89.545,-0.031 128.057,0.700 128.300 C 1.010 128.403,1.200 129.215,1.200 130.433 C 1.200 131.515,1.380 132.400,1.600 132.400 C 1.820 132.400,2.000 133.199,2.000 134.176 C 2.000 135.153,2.180 136.064,2.400 136.200 C 2.620 136.336,2.800 137.056,2.800 137.800 C 2.800 138.544,2.980 139.264,3.200 139.400 C 3.420 139.536,3.600 140.076,3.600 140.600 C 3.600 141.124,3.780 141.664,4.000 141.800 C 4.220 141.936,4.400 142.487,4.400 143.024 C 4.400 143.561,4.580 144.000,4.800 144.000 C 5.020 144.000,5.200 144.529,5.200 145.176 C 5.200 145.823,5.380 146.464,5.600 146.600 C 5.820 146.736,6.000 147.287,6.000 147.824 C 6.000 148.361,6.180 148.800,6.400 148.800 C 6.620 148.800,6.800 149.162,6.800 149.605 C 6.800 150.048,6.959 150.723,7.153 151.105 C 7.348 151.487,7.683 152.250,7.898 152.800 C 8.113 153.350,8.584 154.481,8.945 155.314 C 9.305 156.146,9.600 157.076,9.600 157.380 C 9.600 157.684,9.737 157.993,9.904 158.067 C 10.270 158.228,13.629 164.862,13.581 165.330 C 13.563 165.512,13.919 165.983,14.374 166.377 C 14.828 166.771,15.200 167.225,15.200 167.385 C 15.200 167.545,15.572 168.199,16.027 168.838 C 16.482 169.477,16.662 170.000,16.427 170.000 C 16.192 170.000,16.000 169.820,16.000 169.600 C 16.000 168.768,8.154 169.124,6.196 170.044 C 5.208 170.508,4.400 171.048,4.400 171.244 C 4.400 171.440,4.124 171.600,3.787 171.600 C 3.451 171.600,3.057 171.906,2.914 172.281 C 2.770 172.655,2.149 173.488,1.535 174.131 C 0.920 174.774,0.298 175.937,0.152 176.715 C -0.283 179.035,0.236 197.596,0.751 198.111 C 0.998 198.358,1.200 199.244,1.200 200.080 C 1.200 200.916,1.380 201.600,1.600 201.600 C 1.820 201.600,2.000 202.309,2.000 203.176 C 2.000 204.043,2.180 204.864,2.400 205.000 C 2.620 205.136,2.800 205.676,2.800 206.200 C 2.800 206.724,2.980 207.264,3.200 207.400 C 3.420 207.536,3.600 208.166,3.600 208.800 C 3.600 209.434,3.780 210.064,4.000 210.200 C 4.220 210.336,4.400 210.797,4.400 211.224 C 4.400 211.651,4.580 212.000,4.800 212.000 C 5.020 212.000,5.200 212.540,5.200 213.200 C 5.200 213.860,5.380 214.400,5.600 214.400 C 5.820 214.400,6.000 214.749,6.000 215.176 C 6.000 215.603,6.180 216.064,6.400 216.200 C 6.620 216.336,6.800 216.872,6.800 217.390 C 6.800 217.909,6.942 218.393,7.116 218.467 C 7.532 218.642,9.600 223.063,9.600 223.778 C 9.600 224.083,9.738 224.393,9.906 224.467 C 10.075 224.540,11.017 225.950,12.000 227.600 C 12.983 229.250,13.925 230.660,14.094 230.733 C 14.262 230.807,14.400 231.077,14.400 231.333 C 14.401 231.590,14.851 232.323,15.400 232.962 C 15.950 233.601,16.400 234.268,16.400 234.444 C 16.400 234.620,16.850 235.214,17.400 235.764 C 17.950 236.314,18.402 236.907,18.404 237.082 C 18.406 237.257,19.306 238.343,20.404 239.495 C 21.502 240.648,22.400 241.690,22.400 241.812 C 22.400 242.331,32.395 251.719,33.759 252.482 C 34.176 252.715,35.058 253.422,35.718 254.053 C 36.378 254.684,37.162 255.200,37.459 255.200 C 37.757 255.200,38.000 255.341,38.000 255.514 C 38.000 255.686,38.540 256.146,39.200 256.536 C 39.879 256.937,40.400 257.583,40.400 258.023 C 40.400 258.450,40.580 258.800,40.800 258.800 C 41.020 258.800,41.200 259.340,41.200 260.000 C 41.200 260.660,41.360 261.200,41.556 261.200 C 41.752 261.200,42.006 261.785,42.120 262.500 C 42.520 265.001,43.325 267.490,44.447 269.695 C 44.641 270.077,44.800 270.580,44.800 270.814 C 44.800 271.048,45.160 271.984,45.600 272.894 C 46.040 273.805,46.400 274.876,46.400 275.275 C 46.400 275.674,46.580 276.000,46.800 276.000 C 47.020 276.000,47.200 276.360,47.200 276.800 C 47.200 277.240,47.380 277.600,47.600 277.600 C 47.820 277.600,48.000 277.960,48.000 278.400 C 48.000 278.840,48.180 279.200,48.400 279.200 C 48.620 279.200,48.805 279.515,48.810 279.900 C 48.816 280.285,49.536 282.038,50.410 283.796 C 51.285 285.553,52.000 287.218,52.000 287.496 C 52.000 287.773,52.135 288.001,52.300 288.001 C 52.465 288.002,53.050 288.992,53.600 290.200 C 54.150 291.408,54.735 292.398,54.900 292.399 C 55.065 292.399,55.200 292.745,55.200 293.167 C 55.200 293.588,55.335 293.993,55.500 294.067 C 55.876 294.234,57.175 296.364,57.471 297.300 C 57.593 297.685,57.852 298.000,58.047 298.000 C 58.241 298.000,58.400 298.272,58.400 298.605 C 58.400 299.304,58.886 300.208,60.700 302.878 C 61.415 303.931,62.000 304.900,62.000 305.032 C 62.000 305.383,65.346 310.176,65.700 310.333 C 65.865 310.407,66.000 310.739,66.000 311.073 C 66.000 311.406,66.540 312.183,67.200 312.800 C 67.860 313.417,68.400 314.085,68.400 314.285 C 68.400 314.485,68.720 314.998,69.111 315.425 C 69.502 315.851,70.262 316.830,70.800 317.600 C 71.338 318.370,72.115 319.360,72.527 319.800 C 72.939 320.240,73.802 321.357,74.445 322.282 C 75.088 323.207,75.947 324.197,76.353 324.482 C 76.760 324.767,77.097 325.153,77.102 325.340 C 77.125 326.165,87.390 336.812,93.163 342.000 C 94.754 343.430,96.485 345.005,97.010 345.500 C 97.534 345.995,98.062 346.400,98.181 346.400 C 98.301 346.400,99.141 347.120,100.048 348.000 C 100.955 348.880,101.873 349.600,102.088 349.600 C 102.303 349.600,102.983 350.140,103.600 350.800 C 104.217 351.460,104.874 352.000,105.060 352.001 C 105.247 352.001,106.030 352.545,106.800 353.210 C 107.570 353.874,109.730 355.445,111.600 356.700 C 113.470 357.955,115.060 359.121,115.133 359.291 C 115.207 359.461,115.612 359.600,116.033 359.600 C 116.455 359.600,116.800 359.780,116.800 360.000 C 116.800 360.220,117.120 360.400,117.512 360.400 C 117.903 360.400,118.483 360.760,118.800 361.200 C 119.117 361.640,119.697 362.000,120.088 362.000 C 120.480 362.000,120.800 362.165,120.800 362.367 C 120.800 362.569,121.700 363.142,122.800 363.639 C 123.900 364.136,124.800 364.657,124.800 364.797 C 124.800 364.936,125.430 365.298,126.200 365.600 C 126.970 365.902,127.600 366.296,127.600 366.475 C 127.600 366.654,127.960 366.800,128.400 366.800 C 128.840 366.800,129.200 366.980,129.200 367.200 C 129.200 367.420,129.560 367.600,130.000 367.600 C 130.440 367.600,130.800 367.780,130.800 368.000 C 130.800 368.220,131.034 368.400,131.320 368.400 C 132.056 368.400,133.993 369.341,133.997 369.700 C 133.999 369.865,134.360 370.000,134.800 370.000 C 135.240 370.000,135.600 370.180,135.600 370.400 C 135.600 370.620,135.949 370.800,136.376 370.800 C 136.803 370.800,137.264 370.980,137.400 371.200 C 137.536 371.420,137.997 371.600,138.424 371.600 C 138.851 371.600,139.200 371.780,139.200 372.000 C 139.200 372.220,139.650 372.400,140.200 372.400 C 140.750 372.400,141.200 372.591,141.200 372.824 C 141.200 373.057,141.339 373.161,141.509 373.056 C 141.679 372.951,142.714 373.304,143.809 373.840 C 144.904 374.377,146.565 374.927,147.500 375.062 C 148.435 375.198,149.200 375.464,149.200 375.654 C 149.200 375.844,149.639 376.000,150.176 376.000 C 150.713 376.000,151.264 376.180,151.400 376.400 C 151.536 376.620,152.087 376.800,152.624 376.800 C 153.161 376.800,153.600 376.980,153.600 377.200 C 153.600 377.420,154.219 377.600,154.976 377.600 C 155.733 377.600,156.464 377.780,156.600 378.000 C 156.736 378.220,157.377 378.400,158.024 378.400 C 158.671 378.400,159.200 378.580,159.200 378.800 C 159.200 379.020,159.931 379.200,160.824 379.200 C 161.804 379.200,162.349 379.358,162.200 379.600 C 162.051 379.842,162.596 380.000,163.576 380.000 C 164.469 380.000,165.200 380.180,165.200 380.400 C 165.200 380.620,166.089 380.800,167.176 380.800 C 168.263 380.800,169.264 380.980,169.400 381.200 C 169.536 381.420,170.447 381.600,171.424 381.600 C 172.401 381.600,173.200 381.780,173.200 382.000 C 173.200 382.222,174.259 382.400,175.576 382.400 C 176.883 382.400,178.064 382.580,178.200 382.800 C 178.336 383.020,179.866 383.200,181.600 383.200 C 183.334 383.200,184.864 383.380,185.000 383.600 C 185.150 383.843,188.139 384.000,192.627 384.000 L 200.006 384.000 199.903 360.500 L 199.800 337.000 194.800 336.737 C 190.199 336.495,185.730 335.987,182.927 335.388 C 156.784 329.799,136.095 315.168,122.422 292.600 C 120.611 289.611,116.400 281.078,116.400 280.398 C 116.400 280.173,116.224 279.677,116.009 279.295 C 115.600 278.568,113.780 273.212,113.122 270.800 C 112.318 267.854,111.323 262.849,110.697 258.600 C 110.051 254.214,110.077 239.061,110.738 234.800 C 111.791 228.019,111.823 228.611,110.337 227.578 C 89.108 212.833,78.335 184.046,84.374 158.200 C 85.296 154.252,85.709 152.880,86.892 149.841 C 92.979 134.203,104.582 121.409,119.577 113.802 C 121.188 112.985,122.594 112.353,125.400 111.185 C 129.167 109.618,134.250 108.347,141.246 107.225 C 147.825 106.169,159.658 107.078,167.000 109.203 C 167.880 109.457,169.097 109.762,169.705 109.879 C 170.313 109.996,170.908 110.251,171.029 110.446 C 171.149 110.641,171.509 110.800,171.828 110.800 C 172.741 110.800,180.254 114.283,183.682 116.295 C 187.354 118.451,192.195 122.249,195.922 125.900 C 198.000 127.935,199.767 129.600,199.850 129.600 C 199.932 129.600,200.000 104.040,200.000 72.800 L 200.000 16.000 192.900 16.028 C 188.995 16.044,185.440 16.211,185.000 16.400 M309.562 61.529 C 309.805 61.984,310.201 62.477,310.442 62.626 C 310.756 62.820,310.754 62.662,310.438 62.071 C 310.195 61.616,309.799 61.123,309.558 60.974 C 309.244 60.780,309.246 60.938,309.562 61.529 " stroke="none" fill="#fbdb8b" fill-rule="evenodd"></path><path id="path3" d="M243.200 107.672 C 237.971 108.396,232.461 109.651,229.400 110.815 C 228.960 110.982,227.970 111.347,227.200 111.626 C 222.561 113.307,214.934 117.436,211.419 120.170 C 208.079 122.769,207.290 123.474,203.700 127.072 L 200.000 130.780 200.000 180.190 C 200.000 207.365,200.137 229.600,200.305 229.600 C 200.473 229.600,203.218 226.978,206.405 223.773 C 213.549 216.589,215.135 215.618,219.743 215.606 C 223.875 215.595,228.321 218.337,229.993 221.926 C 230.268 222.517,230.652 223.313,230.847 223.695 C 231.365 224.714,231.266 229.579,230.694 231.200 C 229.765 233.832,228.430 235.407,220.019 243.796 L 211.600 252.193 211.600 266.350 C 211.600 275.715,211.447 281.018,211.148 282.015 C 210.021 285.778,205.732 289.337,201.667 289.882 L 200.000 290.105 200.000 313.313 L 200.000 336.522 204.900 336.273 C 217.314 335.644,228.188 332.792,240.000 327.067 C 241.870 326.161,243.490 325.325,243.600 325.210 C 243.792 325.009,244.894 324.352,246.600 323.422 C 255.786 318.416,270.334 304.243,275.158 295.600 C 275.465 295.050,275.825 294.510,275.958 294.400 C 276.091 294.290,276.442 293.770,276.738 293.245 C 277.033 292.720,277.642 291.640,278.091 290.845 C 287.457 274.249,291.560 252.931,288.840 235.000 C 288.640 233.680,288.360 231.610,288.217 230.400 L 287.959 228.200 289.874 226.800 C 296.641 221.853,304.246 213.458,307.627 207.200 C 308.162 206.210,308.698 205.310,308.819 205.200 C 309.262 204.795,311.919 198.913,312.793 196.400 C 313.061 195.630,313.428 194.640,313.607 194.200 C 313.786 193.760,314.050 192.950,314.194 192.400 C 314.337 191.850,314.621 190.770,314.826 190.000 C 316.414 184.022,316.571 182.533,316.579 173.400 C 316.588 163.567,316.501 162.897,314.029 153.800 C 313.299 151.113,309.503 142.226,308.819 141.600 C 308.698 141.490,308.375 140.995,308.100 140.500 C 307.825 140.005,307.375 139.201,307.100 138.714 C 295.490 118.133,267.132 104.356,243.200 107.672 M255.815 155.207 C 258.609 156.541,260.290 158.343,261.609 161.422 C 262.965 164.584,262.656 183.707,261.204 186.551 C 256.879 195.020,244.432 194.812,240.188 186.200 C 238.829 183.442,238.784 163.982,240.129 161.042 C 242.963 154.852,249.767 152.321,255.815 155.207 " stroke="none" fill="#fc1c3c" fill-rule="evenodd"></path><path id="path4" d="M242.600 107.231 C 241.500 107.419,239.430 107.773,238.000 108.017 C 236.570 108.261,234.950 108.606,234.400 108.784 C 233.850 108.962,232.590 109.326,231.600 109.593 C 230.610 109.860,229.487 110.240,229.105 110.439 C 228.723 110.638,228.226 110.800,228.001 110.800 C 227.269 110.800,219.801 114.309,216.400 116.251 C 213.004 118.190,207.343 122.708,203.523 126.529 L 199.699 130.352 197.350 127.859 C 177.107 106.386,144.582 101.035,118.400 114.871 C 116.310 115.975,114.060 117.283,113.400 117.777 C 112.740 118.271,111.990 118.749,111.733 118.838 C 111.477 118.927,109.381 120.560,107.075 122.466 C 98.855 129.262,92.319 138.032,88.194 147.800 C 87.822 148.680,87.363 149.760,87.173 150.200 C 86.428 151.924,84.837 157.646,84.058 161.400 C 79.227 184.675,90.512 213.342,109.724 226.600 C 112.370 228.426,112.204 227.204,111.027 236.185 C 105.881 275.451,129.570 315.680,166.200 329.881 C 172.110 332.172,172.989 332.480,175.800 333.242 C 202.357 340.446,227.676 336.551,249.800 321.859 C 252.440 320.106,254.690 318.565,254.800 318.435 C 254.910 318.305,256.263 317.178,257.806 315.931 C 260.867 313.457,267.279 306.976,269.808 303.800 C 270.683 302.700,271.506 301.710,271.635 301.600 C 273.491 300.019,280.595 287.658,283.015 281.800 C 283.832 279.820,284.679 277.813,284.897 277.339 C 285.115 276.866,285.217 276.251,285.124 275.973 C 285.032 275.695,284.539 276.622,284.031 278.034 C 282.548 282.147,280.471 286.628,278.091 290.845 C 277.642 291.640,277.033 292.720,276.738 293.245 C 276.442 293.770,276.091 294.290,275.958 294.400 C 275.825 294.510,275.465 295.050,275.158 295.600 C 270.334 304.243,255.786 318.416,246.600 323.422 C 244.894 324.352,243.792 325.009,243.600 325.210 C 243.490 325.325,241.870 326.161,240.000 327.067 C 228.188 332.792,217.314 335.644,204.900 336.273 L 200.000 336.522 200.000 313.294 L 200.000 290.066 197.909 289.618 C 194.150 288.812,191.329 286.650,189.536 283.200 C 188.616 281.430,188.597 281.150,188.400 266.503 L 188.200 251.606 179.515 242.903 C 169.894 233.262,168.794 231.678,168.806 227.489 C 168.825 221.072,174.268 215.600,180.631 215.600 C 182.284 215.600,182.786 215.741,186.000 217.108 C 186.776 217.438,190.207 220.480,193.700 223.935 L 200.000 230.167 200.000 180.473 L 200.000 130.780 203.700 127.072 C 207.290 123.474,208.079 122.769,211.419 120.170 C 214.934 117.436,222.561 113.307,227.200 111.626 C 227.970 111.347,228.960 110.978,229.400 110.805 C 230.134 110.517,231.897 110.002,235.000 109.170 C 261.368 102.097,294.181 115.509,307.038 138.614 C 308.301 140.884,308.619 141.417,308.819 141.600 C 309.602 142.316,313.519 151.725,314.231 154.600 C 314.422 155.373,314.584 155.565,314.686 155.140 C 315.277 152.663,307.728 137.687,303.064 132.085 C 295.332 122.798,286.349 116.000,276.400 111.905 C 274.260 111.024,273.722 110.827,271.400 110.080 C 262.304 107.151,250.120 105.946,242.600 107.231 M154.386 155.303 C 160.170 158.204,160.890 160.375,160.725 174.403 L 160.600 185.000 159.503 186.866 C 154.637 195.143,142.893 194.776,138.809 186.220 L 137.600 183.686 137.600 173.454 C 137.600 163.558,137.631 163.154,138.546 161.111 C 141.370 154.809,148.320 152.261,154.386 155.303 M314.834 156.600 C 314.872 157.966,315.538 159.242,315.566 158.000 C 315.578 157.450,315.413 156.730,315.200 156.400 C 314.880 155.905,314.816 155.940,314.834 156.600 M315.646 160.000 C 315.709 161.880,316.314 163.246,316.354 161.600 C 316.373 160.830,316.213 159.930,316.000 159.600 C 315.695 159.128,315.619 159.214,315.646 160.000 M316.600 173.349 C 316.600 179.013,316.717 183.233,316.860 182.724 C 317.193 181.540,317.187 165.780,316.853 164.224 C 316.714 163.578,316.600 167.684,316.600 173.349 M315.819 185.527 C 315.655 186.477,315.617 187.350,315.734 187.468 C 316.026 187.759,316.526 184.973,316.300 184.321 C 316.200 184.035,315.984 184.577,315.819 185.527 M315.022 189.129 C 314.858 189.859,314.822 190.556,314.942 190.676 C 315.243 190.977,315.720 188.956,315.499 188.317 C 315.401 188.033,315.186 188.398,315.022 189.129 M314.233 192.200 C 314.071 192.860,313.790 193.760,313.609 194.200 C 313.429 194.640,313.061 195.630,312.793 196.400 C 311.919 198.913,309.262 204.795,308.819 205.200 C 308.698 205.310,308.162 206.210,307.627 207.200 C 304.246 213.458,296.641 221.853,289.874 226.800 L 287.959 228.200 288.217 230.400 C 288.360 231.610,288.640 233.680,288.840 235.000 C 290.600 246.597,289.372 260.451,285.352 274.363 C 285.171 274.989,285.220 275.235,285.491 275.067 C 285.720 274.926,286.004 274.313,286.121 273.705 C 286.238 273.097,286.541 271.880,286.794 271.000 C 287.878 267.223,288.529 264.156,289.297 259.200 C 289.933 255.096,289.930 238.633,289.293 234.600 C 289.015 232.840,288.684 230.761,288.559 229.981 C 288.339 228.607,288.419 228.496,291.082 226.516 C 298.514 220.989,305.736 212.293,310.278 203.400 C 312.317 199.409,314.896 192.540,314.686 191.660 C 314.584 191.235,314.423 191.428,314.233 192.200 " stroke="none" fill="#fc6324" fill-rule="evenodd"></path></g></svg>